<?xml version="1.0" encoding="UTF-8"?><svg id="Layer_2" xmlns="http://www.w3.org/2000/svg" xmlns:xlink="http://www.w3.org/1999/xlink" viewBox="0 0 418.33 144.24"><defs><style>.cls-1{fill:url(#linear-gradient);}.cls-2,.cls-3{fill:#ffad12;}.cls-4{fill:#656565;}.cls-5{fill:url(#linear-gradient-3);}.cls-6{fill:url(#linear-gradient-2);}.cls-3{fill-rule:evenodd;}</style><linearGradient id="linear-gradient" x1="138.61" y1="388.77" x2="156.95" y2="388.77" gradientTransform="translate(0 493.2) scale(1 -1)" gradientUnits="userSpaceOnUse"><stop offset="0" stop-color="#ff9b12"/><stop offset="1" stop-color="#ffad12"/></linearGradient><linearGradient id="linear-gradient-2" x1="153.8" y1="389.1" x2="170.15" y2="389.1" xlink:href="#linear-gradient"/><linearGradient id="linear-gradient-3" x1="56.81" y1="360.37" x2="66.38" y2="360.37" gradientTransform="translate(-29.11 568.56) rotate(14.45) scale(1 -1.37) skewX(.54)" xlink:href="#linear-gradient"/></defs><g id="Layer_1-2"><path class="cls-3" d="M370.67,15.35h14.12l2.89,11.54h17.56v14.78h-15.47v34.4c0,6.89,3.05,10.34,9.16,10.36h9.68v14.75h-18.86c-12.7,0-19.05-6.61-19.05-19.91l-.04-65.92Z"/><path class="cls-2" d="M356.1,26.89h-19.11V101.18h19.11V26.89Z"/><path class="cls-2" d="M356.1,0h-19.11V15.33h19.11V0Z"/><path class="cls-3" d="M418.33,101.22c-8.54,13.18-20.35,24.03-34.34,31.56-13.99,7.52-29.7,11.47-45.67,11.47s-31.68-3.94-45.67-11.47c-13.99-7.52-25.8-18.38-34.34-31.56,19.72,17.76,48.2,28.92,79.98,28.92s60.26-11.17,80.03-28.92Z"/><path class="cls-4" d="M2.35,84.07v-10.23c6.09,2.26,12.57,3.36,19.09,3.23,5.36,0,8.07-1.68,8.07-5.05s-1.82-4.63-5.43-4.63H15.09c-10.06,.08-15.09-4.8-15.09-14.63s7.35-15.2,22.04-15.2c5.98-.04,11.93,.89,17.6,2.76v10.23c-5.7-2.23-11.79-3.35-17.94-3.31-6.76,0-10.14,1.69-10.14,5.08,0,3.07,1.97,4.6,5.91,4.6h8c11.02,0,16.53,4.91,16.53,14.73s-6.98,15.23-20.95,15.23c-6.35,.09-12.68-.86-18.71-2.8Zm48.38,2.31V38.02h9.7l1.45,6.14c4.83-3.77,10.77-5.92,16.95-6.14,6.29,0,10.65,2.19,13.26,6.63,6.29-4.44,12.24-6.63,17.79-6.63,10.46,0,15.69,6.14,15.67,18.42v29.98h-12.41v-30.49c0-5.36-2.33-8.04-6.98-8.04-3.73,0-7.61,2.05-11.67,6.26v32.27h-12.57v-30.35c0-5.46-2.28-8.19-6.89-8.19-3.97,0-7.88,2.09-11.73,6.26v32.27l-12.57-.04Zm83.82-15.08c0-9.93,7.17-14.89,21.52-14.88,3.88,0,7.75,.35,11.57,1.04v-3.27c0-4.32-4.3-6.51-12.89-6.51-5.46,.01-10.9,.79-16.14,2.31v-9.68c5.24-1.52,10.67-2.29,16.14-2.29,16.97,0,25.46,5.31,25.46,15.94v32.46h-6.29l-5.39-3.42c-4.23,2.25-8.97,3.43-13.79,3.42-13.37,0-20.05-5.03-20.05-15.08l-.15-.04Zm33.09-4.71c-3.8-.67-7.66-.98-11.53-.92-6.02,0-9.02,1.84-9.01,5.53,.01,3.68,2.53,5.53,7.54,5.55,4.63,.13,9.19-1.19,12.99-3.79v-6.36Zm24.68,19.83V38.02h9.68l1.55,6.14c1.77-1.86,3.9-3.36,6.27-4.42,2.37-1.05,4.92-1.64,7.52-1.72v9.86c-2.43,.05-4.82,.62-7,1.68-2.17,1.06-4.08,2.58-5.58,4.46v32.39h-12.45Zm32.77-56.24h9.24l1.91,7.84h11.5v9.66h-10.12v22.27c0,4.52,2.1,6.79,5.99,6.79h4.19v9.68h-10.18c-8.3,0-12.45-4.35-12.47-13.06l-.06-43.18Z"/><path class="cls-2" d="M281.9,101.22c-9.51,0-17.12-7.75-17.12-17.26V.13h17.26V30.57c4.48-2.85,8.97-3.53,13.72-3.53,9.92,0,18.75,3.94,24.87,11.01,5.71,7.34,7.2,15.9,7.47,25,0,7.88-1.36,16.03-5.3,22.96-6.39,10.6-16.85,14.95-29.35,15.22h-11.55Zm4.21-15.35h5.71c4.62,0,10.06-.82,13.59-4.35,4.35-4.48,4.89-12.64,4.89-18.48,.14-4.76-.68-10.05-3.13-14.13-2.99-4.76-7.74-6.25-13.04-6.52-4.21,0-8.02,.82-12.09,1.77v37.77c0,2.17,1.9,3.94,4.08,3.94Z"/><g><path class="cls-1" d="M152.05,108.72l3.29,.88c-2.86,4.18-8.56,5.25-12.74,2.4-4.18-2.86-5.25-8.56-2.4-12.74,2.86-4.18,8.56-5.25,12.74-2.4,1.16,.79,2.12,1.84,2.81,3.06,.13,.23,.24,.46,.35,.7,.51,1.09,.79,2.26,.84,3.46,0,.03,0,.06,0,.09-.61,.32-1.29,.49-1.99,.49h-.09l-.97-.25-.11,.1c.03-.1,.04-.21,.03-.32,0-.19-.03-.37-.05-.56-.45-3.32-3.5-5.65-6.82-5.2-3.32,.45-5.65,3.5-5.2,6.82,.45,3.32,3.5,5.65,6.82,5.2,1.31-.18,2.53-.78,3.47-1.71h0Z"/><path class="cls-6" d="M169.38,112.74c-.74,.43-1.7,.17-2.13-.57l-7.08-12.26-1.49,2.57c-.77,1.33-2.19,2.15-3.73,2.15h-.09c-.36,0-.72-.06-1.07-.15l2.31-3.89,2.72-4.57c.43-.74,1.38-1,2.12-.57,.24,.14,.43,.33,.57,.57l8.42,14.59c.43,.74,.18,1.69-.57,2.12Z"/><path class="cls-5" d="M156.08,106.37c-1.76-.46-3.57,.59-4.03,2.35h0l6.06,1.59c1.76,.46,3.57-.59,4.03-2.36h0l-6.06-1.59Z"/></g><g><path class="cls-4" d="M175.46,109.94c-1.05,0-1.99-.24-2.81-.72-.82-.48-1.47-1.13-1.93-1.95-.47-.82-.7-1.75-.7-2.79s.23-2.01,.69-2.84c.46-.83,1.09-1.48,1.9-1.94,.8-.47,1.72-.7,2.76-.7,.78,0,1.49,.15,2.13,.44,.64,.3,1.22,.74,1.74,1.33,.18,.21,.25,.43,.2,.65-.05,.22-.2,.42-.43,.59-.18,.13-.39,.17-.61,.13-.22-.05-.43-.16-.61-.35-.64-.68-1.45-1.03-2.41-1.03-.67,0-1.26,.15-1.78,.46-.51,.31-.91,.74-1.2,1.29-.29,.55-.43,1.2-.43,1.95,0,.71,.15,1.34,.44,1.89s.71,.99,1.23,1.31c.53,.32,1.14,.48,1.84,.48,.46,0,.87-.06,1.21-.17,.35-.11,.67-.29,.96-.52,.21-.17,.43-.27,.65-.29,.22-.02,.42,.04,.59,.19,.22,.18,.35,.39,.38,.62,.03,.23-.05,.44-.24,.62-.95,.88-2.13,1.32-3.55,1.32Z"/><path class="cls-4" d="M185.94,109.94c-.96,0-1.82-.24-2.59-.72-.76-.48-1.37-1.13-1.81-1.95-.44-.82-.66-1.75-.66-2.79s.24-1.97,.72-2.8c.48-.83,1.13-1.48,1.95-1.96,.82-.48,1.75-.72,2.77-.72s1.95,.24,2.76,.72c.82,.48,1.46,1.14,1.94,1.96,.48,.83,.72,1.76,.72,2.8h-.77c0,1.04-.22,1.97-.66,2.79-.44,.82-1.04,1.47-1.81,1.95-.76,.48-1.63,.72-2.59,.72Zm.39-1.78c.67,0,1.27-.16,1.8-.48,.53-.32,.94-.76,1.24-1.32,.3-.56,.45-1.19,.45-1.89s-.15-1.35-.45-1.9c-.3-.56-.72-1-1.24-1.32-.53-.32-1.13-.48-1.8-.48s-1.25,.16-1.79,.48c-.53,.32-.95,.76-1.26,1.32-.31,.56-.46,1.19-.46,1.9s.15,1.33,.46,1.89c.31,.56,.73,1,1.26,1.32,.53,.32,1.13,.48,1.79,.48Zm4.42,1.72c-.29,0-.53-.1-.72-.29-.19-.19-.29-.43-.29-.72v-3.02l.38-2.09,1.64,.71v4.4c0,.29-.1,.53-.29,.72-.19,.19-.43,.29-.72,.29Z"/><path class="cls-4" d="M198.67,109.94c-1.03,0-1.95-.24-2.77-.72-.82-.48-1.47-1.14-1.95-1.96s-.72-1.76-.72-2.8,.22-1.97,.66-2.79c.44-.82,1.04-1.47,1.81-1.95,.76-.48,1.63-.72,2.59-.72,.78,0,1.49,.16,2.15,.48,.66,.32,1.21,.76,1.66,1.31v-5.33c0-.3,.1-.55,.29-.73,.19-.18,.43-.28,.72-.28s.55,.09,.73,.28c.18,.18,.28,.43,.28,.73v9c0,1.04-.24,1.97-.72,2.8-.48,.83-1.13,1.48-1.94,1.96-.82,.48-1.74,.72-2.76,.72Zm0-1.78c.67,0,1.27-.16,1.8-.48,.53-.32,.94-.77,1.24-1.33s.45-1.2,.45-1.89-.15-1.34-.45-1.9-.72-.99-1.24-1.31c-.53-.32-1.13-.48-1.8-.48s-1.25,.16-1.79,.48c-.53,.32-.95,.76-1.26,1.31-.31,.55-.46,1.18-.46,1.9s.15,1.33,.46,1.89c.31,.57,.73,1.01,1.26,1.33,.53,.32,1.13,.48,1.79,.48Z"/><path class="cls-4" d="M211.74,109.94c-1.09,0-2.06-.23-2.91-.7s-1.51-1.11-1.99-1.93c-.48-.82-.72-1.77-.72-2.83s.23-2.03,.68-2.85c.45-.82,1.08-1.47,1.89-1.93,.8-.47,1.72-.7,2.76-.7s1.91,.23,2.65,.68c.74,.45,1.3,1.08,1.69,1.88,.39,.8,.58,1.71,.58,2.75,0,.25-.09,.46-.26,.62-.17,.16-.39,.25-.65,.25h-7.96v-1.58h7.9l-.81,.55c-.01-.66-.15-1.25-.39-1.77-.25-.52-.61-.93-1.07-1.23-.46-.3-1.02-.45-1.68-.45-.75,0-1.39,.16-1.92,.49-.53,.33-.94,.78-1.21,1.35-.28,.57-.41,1.22-.41,1.94s.16,1.37,.49,1.93,.78,1.01,1.36,1.34c.58,.33,1.24,.49,1.99,.49,.41,0,.83-.08,1.25-.23,.43-.15,.77-.33,1.04-.52,.2-.14,.41-.22,.64-.23,.23,0,.43,.06,.6,.21,.22,.2,.34,.41,.36,.65,.01,.24-.09,.44-.32,.61-.45,.36-1,.64-1.67,.87-.66,.22-1.3,.34-1.9,.34Z"/><path class="cls-4" d="M218.95,109.88c-.29,0-.53-.1-.72-.29s-.29-.43-.29-.72v-8.78c0-.3,.1-.55,.29-.73,.19-.18,.43-.28,.72-.28s.55,.09,.73,.28c.18,.18,.28,.43,.28,.73v8.78c0,.29-.09,.53-.28,.72-.18,.19-.43,.29-.73,.29Zm6.59,0c-.29,0-.53-.1-.72-.29s-.29-.43-.29-.72v-5.65c0-.83-.2-1.44-.61-1.85-.41-.4-.94-.6-1.6-.6s-1.25,.24-1.7,.71c-.45,.47-.67,1.08-.67,1.82h-1.24c0-.86,.17-1.61,.51-2.26s.82-1.16,1.42-1.53c.6-.37,1.3-.55,2.07-.55s1.41,.16,1.99,.49c.58,.33,1.03,.81,1.35,1.45,.32,.64,.48,1.41,.48,2.32v5.65c0,.29-.09,.53-.28,.72-.18,.19-.43,.29-.73,.29Zm6.57,0c-.29,0-.53-.1-.72-.29-.19-.19-.29-.43-.29-.72v-5.65c0-.83-.2-1.44-.61-1.85-.41-.4-.94-.6-1.6-.6s-1.25,.24-1.69,.71c-.44,.47-.66,1.08-.66,1.82h-1.64c0-.86,.18-1.61,.55-2.26,.37-.65,.88-1.16,1.55-1.53,.66-.37,1.42-.55,2.28-.55,.75,0,1.41,.16,1.99,.49,.58,.33,1.03,.81,1.35,1.45,.32,.64,.48,1.41,.48,2.32v5.65c0,.29-.09,.53-.28,.72-.18,.19-.43,.29-.73,.29Z"/><path class="cls-4" d="M239.73,109.43c-.25,.11-.48,.12-.7,.03-.22-.08-.39-.25-.52-.5l-4.52-8.59c-.13-.25-.15-.49-.05-.72,.1-.23,.27-.4,.52-.5,.25-.11,.49-.12,.71-.03,.22,.09,.4,.25,.51,.5l4.32,8.59c.13,.25,.18,.49,.15,.72-.03,.23-.17,.4-.42,.5Zm-2.33,5.17c-.13,0-.29-.04-.47-.12-.58-.26-.74-.68-.47-1.24l6.02-13.6c.26-.55,.68-.71,1.24-.47,.59,.25,.76,.66,.49,1.24l-6.04,13.58c-.16,.41-.41,.61-.77,.61Z"/></g></g></svg>