<?xml version="1.0" encoding="UTF-8"?>
<svg xmlns="http://www.w3.org/2000/svg" xmlns:xlink="http://www.w3.org/1999/xlink" width="300px" height="103px" viewBox="0 0 298 103" version="1.1">
<g id="surface1">
<path style=" stroke:none;fill-rule:evenodd;fill:rgb(100%,67.843137%,7.058824%);fill-opacity:1;" d="M 264.046875 10.992188 L 274.105469 10.992188 L 276.167969 19.230469 L 288.675781 19.230469 L 288.675781 29.773438 L 277.65625 29.773438 L 277.65625 54.316406 C 277.65625 59.234375 279.832031 61.695312 284.179688 61.707031 L 291.078125 61.707031 L 291.078125 72.234375 L 277.644531 72.234375 C 268.597656 72.234375 264.074219 67.519531 264.074219 58.027344 L 264.046875 10.996094 Z M 264.046875 10.992188 "/>
<path style=" stroke:none;fill-rule:nonzero;fill:rgb(100%,67.843137%,7.058824%);fill-opacity:1;" d="M 253.671875 19.226562 L 240.058594 19.226562 L 240.058594 72.234375 L 253.671875 72.234375 Z M 253.671875 19.226562 "/>
<path style=" stroke:none;fill-rule:nonzero;fill:rgb(100%,67.843137%,7.058824%);fill-opacity:1;" d="M 253.671875 0.0390625 L 240.058594 0.0390625 L 240.058594 10.976562 L 253.671875 10.976562 Z M 253.671875 0.0390625 "/>
<path style=" stroke:none;fill-rule:evenodd;fill:rgb(100%,67.843137%,7.058824%);fill-opacity:1;" d="M 298 72.261719 C 291.917969 81.660156 283.503906 89.410156 273.539062 94.777344 C 263.574219 100.144531 252.382812 102.960938 241.007812 102.960938 C 229.632812 102.960938 218.441406 100.144531 208.476562 94.777344 C 198.511719 89.410156 190.097656 81.664062 184.015625 72.261719 C 198.0625 84.933594 218.347656 92.894531 240.992188 92.894531 C 263.636719 92.894531 283.921875 84.921875 298 72.261719 Z M 298 72.261719 "/>
<path style=" stroke:none;fill-rule:nonzero;fill:rgb(39.607843%,39.607843%,39.607843%);fill-opacity:1;" d="M 1.671875 60.023438 L 1.671875 52.726562 C 6.011719 54.339844 10.628906 55.121094 15.269531 55.03125 C 19.089844 55.03125 21.011719 53.835938 21.011719 51.425781 C 21.011719 49.015625 19.714844 48.125 17.148438 48.125 L 10.746094 48.125 C 3.582031 48.179688 -0.00390625 44.703125 -0.00390625 37.683594 C -0.00390625 30.660156 5.230469 26.832031 15.699219 26.832031 C 19.960938 26.804688 24.199219 27.46875 28.238281 28.800781 L 28.238281 36.101562 C 24.175781 34.511719 19.835938 33.710938 15.460938 33.738281 C 10.644531 33.738281 8.234375 34.945312 8.234375 37.359375 C 8.234375 39.546875 9.636719 40.644531 12.445312 40.644531 L 18.148438 40.644531 C 25.996094 40.644531 29.921875 44.148438 29.921875 51.15625 C 29.921875 58.164062 24.949219 62.023438 14.996094 62.023438 C 10.472656 62.082031 5.96875 61.40625 1.667969 60.023438 Z M 36.136719 61.675781 L 36.136719 27.171875 L 43.050781 27.171875 L 44.078125 31.550781 C 47.519531 28.859375 51.753906 27.324219 56.15625 27.171875 C 60.632812 27.171875 63.738281 28.734375 65.605469 31.902344 C 70.082031 28.734375 74.324219 27.171875 78.277344 27.171875 C 85.730469 27.171875 89.457031 31.550781 89.445312 40.3125 L 89.445312 61.703125 L 80.605469 61.703125 L 80.605469 39.945312 C 80.605469 36.121094 78.949219 34.210938 75.632812 34.210938 C 72.976562 34.210938 70.214844 35.667969 67.320312 38.675781 L 67.320312 61.703125 L 58.363281 61.703125 L 58.363281 40.050781 C 58.363281 36.148438 56.734375 34.210938 53.449219 34.210938 C 50.625 34.210938 47.839844 35.699219 45.09375 38.675781 L 45.09375 61.703125 Z M 95.847656 50.914062 C 95.847656 43.828125 100.957031 40.289062 111.175781 40.296875 C 113.941406 40.296875 116.699219 40.550781 119.417969 41.042969 L 119.417969 38.707031 C 119.417969 35.625 116.359375 34.0625 110.238281 34.0625 C 106.347656 34.070312 102.472656 34.628906 98.742188 35.710938 L 98.742188 28.804688 C 102.472656 27.722656 106.347656 27.175781 110.238281 27.171875 C 122.332031 27.171875 128.375 30.960938 128.375 38.546875 L 128.375 61.703125 L 123.898438 61.703125 L 120.0625 59.265625 C 117.050781 60.871094 113.671875 61.714844 110.242188 61.703125 C 100.71875 61.703125 95.957031 58.117188 95.957031 50.945312 L 95.851562 50.914062 Z M 119.414062 47.554688 C 116.707031 47.078125 113.957031 46.859375 111.203125 46.898438 C 106.914062 46.898438 104.773438 48.210938 104.785156 50.839844 C 104.796875 53.46875 106.589844 54.785156 110.160156 54.796875 C 113.460938 54.890625 116.707031 53.941406 119.414062 52.09375 Z M 137 61.703125 L 137 27.171875 L 143.898438 27.171875 L 145.003906 31.550781 C 146.261719 30.222656 147.78125 29.152344 149.464844 28.398438 C 151.148438 27.648438 152.96875 27.230469 154.824219 27.171875 L 154.824219 34.210938 C 153.089844 34.242188 151.390625 34.652344 149.839844 35.410156 C 148.289062 36.167969 146.933594 37.253906 145.867188 38.59375 L 145.867188 61.707031 L 137 61.707031 Z M 160.347656 21.578125 L 166.929688 21.578125 L 168.289062 27.171875 L 176.484375 27.171875 L 176.484375 34.0625 L 169.277344 34.0625 L 169.277344 49.949219 C 169.277344 53.175781 170.769531 54.796875 173.546875 54.796875 L 176.535156 54.796875 L 176.535156 61.703125 L 169.277344 61.703125 C 163.367188 61.703125 160.40625 58.597656 160.394531 52.390625 L 160.351562 21.578125 Z M 160.347656 21.578125 "/>
<path style=" stroke:none;fill-rule:nonzero;fill:rgb(100%,67.843137%,7.058824%);fill-opacity:1;" d="M 200.808594 72.265625 C 194.035156 72.265625 188.613281 66.738281 188.613281 59.953125 L 188.613281 0.132812 L 200.90625 0.132812 L 200.90625 21.847656 C 204.101562 19.8125 207.292969 19.328125 210.683594 19.328125 C 217.746094 19.328125 224.039062 22.140625 228.394531 27.179688 C 232.460938 32.417969 233.527344 38.523438 233.71875 45.019531 C 233.71875 50.644531 232.75 56.460938 229.941406 61.40625 C 225.390625 68.96875 217.941406 72.070312 209.035156 72.265625 Z M 203.8125 61.3125 L 207.878906 61.3125 C 211.167969 61.3125 215.039062 60.726562 217.554688 58.207031 C 220.652344 55.007812 221.039062 49.191406 221.039062 45.023438 C 221.136719 41.628906 220.558594 37.851562 218.816406 34.941406 C 216.6875 31.546875 213.296875 30.480469 209.523438 30.285156 C 206.523438 30.285156 203.816406 30.871094 200.910156 31.546875 L 200.910156 58.503906 C 200.910156 60.050781 202.265625 61.3125 203.816406 61.3125 Z M 203.8125 61.3125 "/>
</g>
</svg>
